PathFileType	4	(X/Y/Z)	D:\TRACE\v60_Jaco2_6-2-23\BothDRS_Motion2_10-v60.trc
DataRate	CameraRate	NumFrames	NumMarkers	Units	OrigDataRate	OrigDataStartFrame	OrigNumFrames
100.00	100.00	      39	9	mm	100.00	938	      7500
Frame#	Time	front left toe			Front right toe			aft left toe			aft right toe			Arm			FL body			FR body			AL Body			AR Body			
		X1	Y1	Z1	X2	Y2	Z2	X3	Y3	Z3	X4	Y4	Z4	X5	Y5	Z5	X6	Y6	Z6	X7	Y7	Z7	X8	Y8	Z8	X9	Y9	Z9	

938	9.370	-95.65964	29.19322	-174.35083	294.39691	155.07027	-234.61375	9.38595	99.89608	428.10394	352.77271	-4.57282	395.27628	134.97469	1226.09106	-200.17108	11.90019	606.55658	-318.74805	170.59250	602.88385	-340.95105	133.56401	511.13849	614.74377	289.36871	501.92200	594.43268	
939	9.380	-96.96801	28.93663	-174.56276	294.86703	159.56097	-234.59418	10.56798	105.86927	429.01825	351.68729	-4.19648	394.91943	133.76059	1225.56335	-201.33952	10.51069	605.87830	-318.78790	169.36368	602.13934	-340.70471	133.92517	511.48300	614.63873	289.53757	502.64349	595.07269	
940	9.390	-98.04923	28.22645	-174.80531	295.76880	161.53154	-234.66260	11.52433	107.78928	429.71448	350.84698	-3.35203	394.71222	133.19209	1224.77722	-202.25404	9.17733	605.04480	-318.88403	167.56079	601.33270	-340.16830	134.00525	512.17505	614.29584	291.09344	503.38232	593.77374	
941	9.400	-99.25737	28.20130	-175.07234	297.01544	161.10715	-234.42767	11.69012	107.92767	431.09546	349.32651	-3.15694	394.20938	131.79428	1224.38831	-203.44672	7.96965	604.45679	-318.81332	166.48508	600.97876	-341.35410	134.32538	512.88458	614.20850	290.57175	504.17093	594.44421	
942	9.410	-100.53527	27.82628	-175.07115	297.13730	157.93651	-234.38181	12.59858	104.71848	432.44257	348.61212	-2.31865	393.87125	129.95467	1224.25708	-204.38695	6.79052	603.91907	-318.88956	165.37686	600.58716	-341.77988	135.14667	513.35583	614.58655	290.87045	504.54532	592.86945	
943	9.420	-101.51958	27.31188	-175.42401	297.03445	153.07501	-234.56816	13.79483	101.00881	433.54132	347.52951	-1.92378	393.53391	127.38457	1224.08240	-205.45107	5.20201	603.50696	-319.11743	164.31665	600.12994	-342.00644	135.26448	513.83551	614.03735	291.06064	505.30795	592.45386	
944	9.430	-102.51701	27.07232	-175.68993	296.40573	147.06538	-234.89053	15.27489	95.78916	434.99567	346.36844	-1.29396	393.33185	124.92105	1223.78467	-206.30913	4.11766	602.90656	-319.25824	162.20085	599.76282	-342.74805	135.57707	514.23169	613.55231	291.50937	506.28076	592.75195	
945	9.440	-103.97330	26.56939	-175.78369	295.56219	139.80290	-235.16728	16.08792	89.05597	436.37369	345.48395	-0.61045	393.15891	122.56236	1223.52405	-207.16408	3.35261	602.04755	-319.54117	161.74690	599.48322	-342.81100	135.89873	514.93152	613.18085	291.64093	506.75192	591.29150	
946	9.450	-104.58978	25.82689	-175.81175	294.56186	131.08498	-235.79166	17.08595	80.76083	437.51367	344.20984	-0.05029	392.70108	120.85937	1223.26025	-208.04872	1.70108	601.66754	-319.85968	160.31288	599.16400	-344.31186	136.12151	515.43243	612.92358	291.85742	507.80167	591.42279	
947	9.460	-105.65666	25.51179	-176.05498	294.44086	121.59451	-236.78450	17.68739	71.54875	438.81036	343.50848	0.91230	392.69165	119.45626	1222.85486	-209.16405	0.63821	600.95880	-320.14844	158.86992	598.74023	-344.03351	136.17403	516.23468	612.13550	292.13174	508.05231	589.89105	
948	9.470	-107.07163	25.08237	-176.26181	294.39673	111.17361	-237.43520	18.28448	61.83772	439.37021	342.44769	1.34494	392.18100	117.88991	1222.62292	-210.65161	-0.77025	600.65814	-320.41547	157.49110	598.25549	-344.52585	136.48547	516.48553	611.97015	293.97940	508.92993	589.21948	
949	9.480	-108.19846	24.63497	-176.50682	293.58850	99.96712	-237.77007	19.67894	50.41879	440.38498	341.18332	2.07049	391.86990	116.35128	1222.09814	-211.73247	-2.34945	600.03217	-321.04956	155.68407	597.36792	-344.41492	136.42822	516.84509	611.18658	292.42432	509.76163	589.31665	
950	9.490	-109.37383	24.31962	-176.62149	292.72791	89.53842	-238.53085	20.15492	39.98172	440.39441	340.25696	2.50690	391.33054	114.47515	1221.69666	-213.08603	-3.30209	599.57727	-321.55930	154.52052	597.43170	-345.79279	136.55310	517.12732	610.65161	292.28522	509.77945	587.49225	
951	9.500	-110.55062	23.82877	-176.92821	292.57611	79.26189	-239.21696	21.13733	30.03463	439.67767	338.97415	3.06714	390.98456	112.60455	1221.49658	-214.04022	-4.77603	598.79242	-322.10895	153.10303	597.03998	-347.07956	136.58765	517.71411	609.67163	292.49228	510.65161	587.69977	
952	9.510	-111.59368	23.33641	-177.23238	290.54449	68.43333	-240.17101	21.52961	20.17045	438.43628	338.09491	3.88889	390.69525	110.00645	1221.43713	-215.08621	-5.74662	598.26624	-322.55994	152.78270	596.81262	-347.67191	136.31627	518.23547	608.82971	292.14694	511.19418	585.66205	
953	9.520	-112.59057	23.16828	-177.32738	290.09158	59.77412	-241.44785	20.54308	11.50384	436.33630	337.12244	4.58111	390.50150	107.58663	1221.29358	-216.54959	-7.10027	597.70044	-323.65009	151.55307	596.28375	-348.49817	136.73030	518.68732	608.33185	292.41205	512.11096	585.62549	
954	9.530	-113.89925	22.69330	-177.68481	289.33835	51.25663	-242.38995	19.50074	3.49664	434.65945	335.96643	5.28993	390.27118	105.20702	1220.87024	-217.91339	-8.13976	597.51862	-324.21481	150.10307	596.33447	-349.69424	136.72208	518.45288	607.62402	291.98859	512.21539	583.79755	
955	9.540	-114.73126	22.06050	-178.18622	288.38116	44.67122	-243.56644	17.23435	5.80089	431.91605	335.22818	6.06118	390.03607	103.09319	1220.44263	-219.45447	-9.46786	596.66663	-325.23322	149.13390	596.08051	-350.80652	136.37782	519.32916	605.98328	291.96497	512.97021	582.49744	
956	9.550	-115.73299	21.54697	-178.20792	287.72406	40.05005	-245.11859	16.33215	4.48434	433.31262	333.70883	6.74659	389.54877	101.07375	1220.44299	-220.82362	-10.67527	596.25073	-326.27408	147.78775	595.92120	-352.57266	136.92583	520.45685	605.00488	291.67413	514.07446	581.36145	
957	9.560	-116.89748	21.06914	-178.45403	286.83463	35.76647	-246.51639	15.60227	7.02788	433.04111	332.90549	7.70904	389.14822	99.17267	1219.89978	-223.21381	-11.88157	595.22009	-327.03223	146.51407	594.44202	-353.10315	136.52060	522.15051	603.90259	292.07062	515.66357	579.99738	
958	9.570	-118.08407	20.60527	-178.89487	285.42651	28.97252	-247.39952	14.58127	7.62569	432.79025	331.51651	8.36967	388.56046	97.69376	1219.70789	-226.24789	-13.32339	594.15723	-328.30887	144.97980	593.86182	-354.38068	136.63663	523.58087	603.53961	290.94052	516.89185	578.22278	
959	9.580	-119.21356	20.39013	-179.15862	284.00714	20.05458	-250.67413	13.74944	8.70473	432.54681	330.56421	9.14655	388.26920	96.22939	1219.29712	-229.68686	-14.51798	593.42706	-329.01907	143.48068	593.51532	-355.19464	136.34232	524.94757	602.32947	291.96277	519.54773	578.35358	
960	9.590	-119.77457	19.65204	-179.48813	284.84207	17.90308	-249.53802	12.48736	9.69423	432.60614	329.45657	9.81674	387.87155	94.86360	1218.61951	-232.63507	-16.05917	593.65448	-329.87064	142.17340	594.22498	-356.50473	136.33676	526.19379	601.61365	290.65140	519.95587	576.06818	
961	9.600	-119.52950	21.37309	-180.55925	283.45825	18.63334	-250.05898	12.25422	9.69821	432.09058	328.59113	12.52966	387.62210	92.25908	1218.47546	-234.77461	-17.73553	594.69421	-330.79117	140.85014	595.49500	-357.38031	135.74655	527.81512	600.75159	291.49139	522.58008	576.00476	
962	9.610	-116.72103	24.80685	-180.01459	281.40802	18.35863	-250.61017	11.04479	10.17218	431.84421	326.11349	16.48076	388.60593	88.71002	1219.92651	-235.64777	-18.56178	596.04065	-331.55917	139.44324	596.28674	-358.44379	135.49576	529.53601	599.50452	291.43692	523.46930	574.24237	
963	9.620	-113.99256	28.85613	-176.93710	280.17740	17.79170	-251.21196	9.77110	10.94696	430.95255	322.16968	20.54892	391.83093	85.48488	1221.96985	-235.75023	-19.59105	596.06061	-332.43283	138.44780	596.81317	-359.33203	134.80548	530.64685	598.57104	291.16611	524.73083	573.30634	
964	9.630	-113.12229	37.88613	-176.56534	279.60138	17.37651	-251.42453	8.68695	11.93732	430.96732	318.19171	30.71209	393.01804	82.84162	1223.71716	-235.80852	-21.16866	595.80603	-333.32986	137.40158	596.86401	-360.25888	134.31750	531.90192	598.17883	290.39365	526.54901	572.44208	
965	9.640	-113.30835	46.62627	-176.65443	278.29074	16.41104	-251.83090	7.64824	12.67204	430.77670	316.46002	41.12400	392.49677	80.62393	1223.61853	-236.97772	-22.30970	594.80603	-333.86349	135.76283	596.49109	-361.13943	133.44644	533.15906	597.88989	289.29547	528.07605	571.95947	
966	9.650	-114.21938	58.24774	-177.56097	277.40717	15.62545	-251.96306	6.46758	13.49383	430.49530	317.36996	53.56871	391.55170	79.31711	1222.72754	-238.46042	-23.16110	594.42114	-334.18365	135.02097	595.88385	-361.33002	132.03174	534.15454	597.23688	288.01202	529.06561	571.52216	
967	9.660	-115.96479	69.70554	-178.83766	276.45523	15.17699	-252.23236	5.60372	13.94107	430.39603	320.39960	65.97126	388.73181	78.16921	1221.03064	-240.81993	-24.02186	593.59625	-335.04675	134.19487	595.20197	-361.94772	131.03506	534.70343	596.42377	287.07922	530.30676	571.99603	
968	9.670	-118.36655	81.81072	-179.68935	275.38849	14.72146	-252.39482	4.39403	14.72947	429.91812	323.08606	77.82175	387.67996	77.48800	1220.07532	-243.06427	-24.74340	592.87213	-335.25085	132.65045	594.13672	-361.50952	129.56465	535.35571	596.15411	285.43408	530.63971	571.19196	
969	9.680	-119.92818	92.97404	-179.89297	274.67755	14.08821	-252.76311	3.20218	15.30573	429.71283	324.55045	89.62989	386.00095	76.27152	1219.20923	-245.00854	-25.68593	591.59625	-335.84073	132.54575	593.15240	-362.74838	128.21158	535.84955	596.20599	283.81915	531.33411	571.05237	
970	9.690	-122.11362	104.51811	-180.20900	273.73529	13.33668	-252.76643	2.53104	15.54906	429.37518	327.93954	102.11028	385.54404	75.21969	1218.44482	-246.32362	-26.96153	589.98676	-336.29416	131.46664	591.75745	-362.98779	126.69534	536.81073	595.96881	282.20718	532.69897	571.43298	
971	9.700	-123.09690	114.87930	-180.42992	272.94778	12.60643	-253.09975	1.19767	16.36559	429.30981	326.66043	113.24673	385.21619	73.44658	1217.15906	-247.65457	-27.52180	588.23383	-336.68875	130.68898	590.44196	-362.95013	125.33926	537.97827	595.95831	280.58875	533.95355	571.45166	
972	9.710	-122.99648	124.21048	-180.61540	272.17612	11.98913	-253.23940	0.10575	17.35739	428.82300	326.36963	123.84673	385.31155	71.78787	1216.26538	-249.34277	-28.67205	587.04407	-336.64554	129.35658	588.88702	-363.01282	123.54721	539.64618	595.45428	279.46021	535.26147	571.71887	
973	9.720	-123.48771	132.34447	-180.47807	271.04010	11.33971	-253.66039	-0.62544	18.24820	428.69138	325.45505	133.21581	385.35809	70.32949	1215.40466	-250.98428	-29.93741	586.27802	-336.89053	128.03079	587.55518	-363.11240	122.46099	540.78442	595.70422	277.05194	535.41083	570.23425	
974	9.730	-125.12477	139.58292	-180.58005	270.39725	10.99764	-253.66876	-1.61407	19.11183	428.51236	324.77264	141.36354	384.78900	68.96104	1214.28662	-253.16869	-31.12665	584.97699	-337.15787	127.73077	586.74725	-363.27441	121.43115	542.01343	596.09094	275.78525	536.95203	570.76276	
975	9.740	-127.25698	144.49663	-180.75839	269.39371	10.47487	-253.80649	-2.51842	19.56224	428.28970	325.84924	147.38084	383.86459	67.53703	1213.21985	-254.92143	-32.16187	583.85229	-337.01382	126.23953	585.75360	-363.27884	119.64833	543.01837	595.83752	275.56049	538.47363	571.19916	
976	9.750	-129.18454	146.47258	-180.23399	268.41055	9.97940	-253.98241	-3.13942	19.98321	428.16241	328.27451	151.28250	382.92209	66.29080	1212.18225	-256.69379	-32.73417	582.78461	-336.97598	124.74224	584.26477	-362.60443	117.88036	544.12793	596.00494	273.43481	539.66602	571.65094	
